<svg xmlns="http://www.w3.org/2000/svg" width="17.22" height="15.55" viewBox="0 0 17.22 15.55">
  <g id="Group_98" data-name="Group 98" transform="translate(705.57 -136.877)">
    <g id="Group_85" data-name="Group 85" transform="translate(-705.57 139.285)">
      <path id="Path_46" data-name="Path 46" d="M-695.894,178.3h-8.84a.837.837,0,0,1-.836-.836V166a.837.837,0,0,1,.836-.836h1.487v.681h-1.487a.157.157,0,0,0-.155.155v11.47a.157.157,0,0,0,.155.155h8.84a.157.157,0,0,0,.155-.155V166a.157.157,0,0,0-.155-.155h-1.446v-.681h1.446a.837.837,0,0,1,.836.836v11.47A.837.837,0,0,1-695.894,178.3Z" transform="translate(705.57 -165.16)" fill="#fff"/>
    </g>
    <g id="Group_86" data-name="Group 86" transform="translate(-702.733 136.877)">
      <path id="Path_47" data-name="Path 47" d="M-671.62,140.891a.557.557,0,0,1-.355-.124.954.954,0,0,1-.275-.735v-.01a4.036,4.036,0,0,1,.351-1.657,2.2,2.2,0,0,1,2.606-1.383,3.241,3.241,0,0,1,1.925,3.18.788.788,0,0,1-.309.612.652.652,0,0,1-.47.108h-3.365A.65.65,0,0,1-671.62,140.891Zm1.751-3.333a1.789,1.789,0,0,0-1.409,1.089,3.4,3.4,0,0,0-.29,1.375c0,.01,0,.019,0,.028a.662.662,0,0,0,.018.151h3.486a.408.408,0,0,0,.019-.1,2.558,2.558,0,0,0-1.485-2.481A.961.961,0,0,0-669.87,137.558Z" transform="translate(672.25 -136.877)" fill="#fff"/>
    </g>
    <g id="Group_87" data-name="Group 87" transform="translate(-703.874 144.084)">
      <rect id="Rectangle_10" data-name="Rectangle 10" width="4.046" height="0.901" rx="0.45" transform="translate(0 0)" fill="#fff"/>
    </g>
    <g id="Group_88" data-name="Group 88" transform="translate(-703.874 147.894)">
      <rect id="Rectangle_11" data-name="Rectangle 11" width="4.046" height="0.901" rx="0.45" transform="translate(0 0)" fill="#fff"/>
    </g>
    <g id="Group_90" data-name="Group 90" transform="translate(-699.778 145.606)">
      <g id="Group_89" data-name="Group 89" transform="translate(0 0)">
        <path id="Path_48" data-name="Path 48" d="M-637.508,240.059c.195.571.4,1.14.621,1.7a5.127,5.127,0,0,0,.432.954.592.592,0,0,0,.744.28,1.263,1.263,0,0,0,.505-.5,6.512,6.512,0,0,0,.364-.611,2.223,2.223,0,0,0,.24-.519.52.52,0,0,0-.357-.628.518.518,0,0,0-.628.357s-.008.037-.012.037a.085.085,0,0,0,0,.012c.054-.176.057-.131.039-.094l-.021.045c-.032.069-.066.136-.1.2-.093.178-.191.352-.3.522-.049.079-.1.157-.155.232-.026.037-.085.092.031-.039-.011.012-.02.026-.031.038s-.045.047-.067.071c-.053.057.08-.059.065-.049-.045.03-.063,0,.089-.034a.519.519,0,0,1,.451.122c-.021-.018-.058-.068.011.02s.02.025,0,0a2.647,2.647,0,0,1-.167-.33l-.045-.1a.452.452,0,0,0-.025-.059.68.68,0,0,0,.033.079l-.015-.035q-.054-.13-.105-.261c-.138-.35-.268-.7-.4-1.058-.074-.207-.147-.415-.219-.624a.52.52,0,0,0-.628-.357.518.518,0,0,0-.357.628Z" transform="translate(637.531 -239.409)" fill="#fff"/>
      </g>
    </g>
    <g id="Group_92" data-name="Group 92" transform="translate(-699.778 141.516)">
      <g id="Group_91" data-name="Group 91" transform="translate(0 0)">
        <path id="Path_49" data-name="Path 49" d="M-637.508,192.018c.195.571.4,1.14.621,1.7a5.127,5.127,0,0,0,.432.954.593.593,0,0,0,.744.28,1.264,1.264,0,0,0,.505-.5,6.52,6.52,0,0,0,.364-.611,2.225,2.225,0,0,0,.24-.519.52.52,0,0,0-.357-.628.518.518,0,0,0-.628.357s-.008.036-.012.037a.08.08,0,0,0,0,.012c.054-.176.057-.131.039-.094l-.021.045c-.032.069-.066.136-.1.2-.093.177-.191.352-.3.522-.049.079-.1.157-.155.232-.026.037-.085.092.031-.039-.011.012-.02.026-.031.038s-.045.047-.067.071c-.053.057.08-.059.065-.049-.045.03-.063,0,.089-.034a.519.519,0,0,1,.451.122c-.021-.018-.058-.068.011.02s.02.025,0,0a2.657,2.657,0,0,1-.167-.33l-.045-.1a.454.454,0,0,0-.025-.059.677.677,0,0,0,.033.079l-.015-.035q-.054-.13-.105-.261c-.138-.35-.268-.7-.4-1.058-.074-.207-.147-.415-.219-.624a.52.52,0,0,0-.628-.357.518.518,0,0,0-.357.628Z" transform="translate(637.531 -191.368)" fill="#fff"/>
      </g>
    </g>
    <g id="Group_93" data-name="Group 93" transform="translate(-694.245 141.407)">
      <path id="Path_50" data-name="Path 50" d="M-568.417,199.83h-1.412l-.035-.007a.635.635,0,0,1-.552-.576v-.165h-2.127V198.4h2.809v.749h1.241V198.5l.364-.465v-3.3a3.56,3.56,0,0,1-1-.989l-.021-.033-.013-.037c-.007-.019-.67-1.868-.91-2.527-.1-.279-.227-.37-.289-.383l-.039.013v-.013h-2.144v-.681h2.126c.261-.023.73.127.986.831.22.606.8,2.213.9,2.489a2.63,2.63,0,0,0,.89.818l.2.092v3.955l-.364.465v.505l-.008.035A.643.643,0,0,1-568.417,199.83Zm-1.932-9.067Z" transform="translate(572.544 -190.083)" fill="#fff"/>
    </g>
    <g id="Group_94" data-name="Group 94" transform="translate(-694.245 142.542)">
      <path id="Path_51" data-name="Path 51" d="M-570.123,206.788h-2.421v-.681h2.227a.624.624,0,0,0,0-.069l-.782-1.941h-1.449v-.681h1.909l.995,2.467,0,.049a.735.735,0,0,1-.445.844Z" transform="translate(572.544 -203.416)" fill="#fff"/>
    </g>
    <g id="Group_95" data-name="Group 95" transform="translate(-693.531 146.762)">
      <path id="Path_52" data-name="Path 52" d="M-563.57,254.908l-.1-.064a1.088,1.088,0,0,1-.495-.808.945.945,0,0,1,.49-.789l.067-.046,1.685-.225.082.032a.98.98,0,0,1,.537.51,1.54,1.54,0,0,1,.014.771l-.012.052-.027.046a.768.768,0,0,1-.6.412c-.109,0-1,.061-1.533.1Zm.222-1.054c-.1.077-.132.139-.132.175a.325.325,0,0,0,.111.181c.357-.026,1.157-.082,1.4-.091a.415.415,0,0,0,.032-.037.853.853,0,0,0,0-.32.243.243,0,0,0-.088-.085Z" transform="translate(564.161 -252.977)" fill="#fff"/>
    </g>
    <g id="Group_96" data-name="Group 96" transform="translate(-690.038 143.935)">
      <rect id="Rectangle_12" data-name="Rectangle 12" width="1.688" height="0.68" rx="0.34" transform="translate(0 0)" fill="#fff"/>
    </g>
    <g id="Group_97" data-name="Group 97" transform="translate(-701.088 138.371)">
      <circle id="Ellipse_5" data-name="Ellipse 5" cx="0.698" cy="0.698" r="0.698" transform="translate(0 0)" fill="#fff"/>
    </g>
  </g>
</svg>
