<svg xmlns="http://www.w3.org/2000/svg" width="19.511" height="15.639" viewBox="0 0 19.511 15.639">
  <g id="Group_3108" data-name="Group 3108" transform="translate(1430.489 -334.596)">
    <g id="Group_3107" data-name="Group 3107" transform="translate(-1430.489 334.596)">
      <path id="Path_1375" data-name="Path 1375" d="M-1429.388,340.427c-.23-.039-.441-.08-.655-.109a.488.488,0,0,1-.445-.5c0-.136,0-.271,0-.407a.47.47,0,0,1,.456-.489c.57-.007,1.141,0,1.711,0a1.226,1.226,0,0,1,.229.048c.024-.068.051-.14.074-.214.222-.692.446-1.383.665-2.076.062-.2.1-.4.173-.594a2.125,2.125,0,0,1,2.069-1.476c1.614-.019,3.229-.006,4.843-.007.79,0,1.579,0,2.37,0a2.326,2.326,0,0,1,1.352.376,2.291,2.291,0,0,1,.9,1.307c.164.552.332,1.1.5,1.652.092.3.19.6.286.9.014.044.032.088.04.109.181-.009.344-.022.508-.023.451,0,.9,0,1.352,0a.482.482,0,0,1,.526.537c0,.128,0,.255,0,.383a.477.477,0,0,1-.4.471l-.334.062c.045.04.071.065.1.087a5.412,5.412,0,0,1,2.071,3.917,5.453,5.453,0,0,1-3.07,5.381,5.161,5.161,0,0,1-6.747-2.313.142.142,0,0,0-.145-.087q-2.947,0-5.895,0c-.091,0-.119.026-.118.121.005.311,0,.622,0,.933a.851.851,0,0,1-.862.9q-.612.008-1.225,0a.853.853,0,0,1-.877-.925c0-1.085-.015-2.169.005-3.253.012-.664.076-1.327.122-1.99.036-.521.082-1.041.121-1.561a3.145,3.145,0,0,1,.263-1.059C-1429.411,340.5-1429.4,340.472-1429.388,340.427Zm13.1-1.061c.085,0,.17-.006.254,0s.123-.03.1-.117c-.075-.3-.135-.607-.231-.9-.161-.494-.357-.976-.517-1.471a1.416,1.416,0,0,0-.323-.582.215.215,0,0,0-.135-.064q-4.3,0-8.6,0a.224.224,0,0,0-.136.062,1.4,1.4,0,0,0-.348.633c-.228.709-.53,1.392-.7,2.125a.8.8,0,0,0,.127.7,1.511,1.511,0,0,0,1.286.652q3.033,0,6.066,0a.429.429,0,0,0,.232-.077A5.1,5.1,0,0,1-1416.293,339.366Zm.718,6.051h.141c.793,0,1.587-.007,2.38-.006.094,0,.127-.026.125-.127q-.01-.49,0-.98c0-.107-.026-.142-.134-.141-.789.007-1.579.007-2.368.009h-.158v-2.736h-1.2v2.748h-2.63v1.245h.16c.786,0,1.571,0,2.357-.008.1,0,.129.03.128.134,0,.821,0,1.642,0,2.463,0,.046,0,.093,0,.139h1.2Zm-9.521-.98a1.292,1.292,0,0,0-1.271-1.316,1.3,1.3,0,0,0-1.274,1.317,1.3,1.3,0,0,0,1.275,1.315A1.291,1.291,0,0,0-1425.1,344.437Zm3.63.74a5.947,5.947,0,0,1,.187-1.875.611.611,0,0,0-.065-.009h-1.963a.234.234,0,0,0-.236.175.938.938,0,0,0-.045.268c-.006.255,0,.51,0,.765a3.512,3.512,0,0,0,.013.381.291.291,0,0,0,.332.3h1.778Z" transform="translate(1430.489 -334.596)" fill="#8a96a1"/>
    </g>
  </g>
</svg>
