<svg xmlns="http://www.w3.org/2000/svg" width="44.905" height="18.438" viewBox="0 0 44.905 18.438">
  <path id="Apple_Pay-Logo.wine" d="M8.2,2.377a2.759,2.759,0,0,1-2.21,1.044,3.128,3.128,0,0,1,.789-2.289A3.3,3.3,0,0,1,8.977,0,3.33,3.33,0,0,1,8.2,2.377m.763,1.21c-1.219-.07-2.263.693-2.842.693s-1.474-.658-2.438-.64A3.6,3.6,0,0,0,.626,5.5c-1.316,2.263-.342,5.614.93,7.456.623.912,1.368,1.912,2.351,1.877.93-.035,1.3-.605,2.421-.605s1.456.605,2.438.588c1.017-.018,1.658-.912,2.281-1.824a8,8,0,0,0,1.017-2.1,3.3,3.3,0,0,1-1.982-3.009,3.375,3.375,0,0,1,1.605-2.824A3.476,3.476,0,0,0,8.968,3.588m7.044-2.544V14.719h2.123V10.043h2.938a4.34,4.34,0,0,0,4.57-4.509,4.289,4.289,0,0,0-4.5-4.491Zm2.123,1.789h2.447c1.842,0,2.895.982,2.895,2.71s-1.053,2.719-2.9,2.719H18.134ZM29.519,14.824a3.512,3.512,0,0,0,3.131-1.746h.044v1.64H34.66V7.912c0-1.974-1.579-3.245-4.009-3.245-2.254,0-3.921,1.289-3.982,3.061h1.912A1.863,1.863,0,0,1,30.59,6.333c1.3,0,2.026.605,2.026,1.719v.754l-2.649.158c-2.465.149-3.8,1.158-3.8,2.912C26.169,13.648,27.546,14.824,29.519,14.824Zm.57-1.623c-1.132,0-1.851-.544-1.851-1.377,0-.86.693-1.36,2.017-1.439l2.36-.149v.772A2.307,2.307,0,0,1,30.09,13.2Zm7.193,5.237c2.07,0,3.044-.789,3.895-3.184L44.9,4.8H42.747l-2.5,8.079H40.2L37.7,4.8H35.484l3.6,9.956-.193.605A1.687,1.687,0,0,1,37.1,16.78c-.167,0-.491-.018-.623-.035v1.64a5.847,5.847,0,0,0,.807.053Z" transform="translate(0)"/>
</svg>
