<svg id="Group_2611" data-name="Group 2611" xmlns="http://www.w3.org/2000/svg" width="15.238" height="15.232" viewBox="0 0 15.238 15.232">
  <path id="Path_1132" data-name="Path 1132" d="M412.786,137.67c0-.2-.006-.37,0-.536a.6.6,0,1,1,1.188.012c.006.158,0,.316,0,.5h2.679c0-.189-.009-.374,0-.559a.59.59,0,1,1,1.181-.009c.012.186,0,.373,0,.576h2.71c0-.172,0-.346,0-.52a.6.6,0,1,1,1.19.013c0,.158,0,.317,0,.524h.647a2.385,2.385,0,0,1,2.506,2.5q0,1.606,0,3.212a.6.6,0,1,1-1.188-.01c0-1.041,0-2.082,0-3.123a1.228,1.228,0,0,0-1.387-1.389h-.575c0,.188,0,.362,0,.536a.6.6,0,1,1-1.19-.012c0-.158,0-.317,0-.5h-2.708c0,.183.009.368,0,.552a.592.592,0,1,1-1.183,0c-.01-.177,0-.355,0-.552h-2.679c0,.182.006.349,0,.516a.6.6,0,1,1-1.188-.013c-.006-.158,0-.316,0-.556a7.136,7.136,0,0,0-1.176.133,1.124,1.124,0,0,0-.755,1.161c0,1.527,0,3.053,0,4.58q0,2.246,0,4.491a1.208,1.208,0,0,0,1.327,1.329c1.437,0,2.875,0,4.312,0a.6.6,0,0,1,.673.456c.092.415-.189.732-.662.733q-2.23,0-4.461,0a2.419,2.419,0,0,1-.442-.046,2.344,2.344,0,0,1-1.934-2.279q-.017-4.7,0-9.4a2.36,2.36,0,0,1,2.326-2.315C412.25,137.665,412.505,137.67,412.786,137.67Z" transform="translate(-409.658 -136.481)" fill="#8a96a1"/>
  <path id="Path_1133" data-name="Path 1133" d="M548.322,278.7a3.6,3.6,0,1,1,3.637-3.553A3.609,3.609,0,0,1,548.322,278.7Zm2.447-3.578a2.408,2.408,0,1,0-2.422,2.387A2.416,2.416,0,0,0,550.768,275.117Z" transform="translate(-536.724 -263.465)" fill="#8a96a1"/>
  <path id="Path_1134" data-name="Path 1134" d="M506.962,232.1a.593.593,0,1,1-.57-.6A.6.6,0,0,1,506.962,232.1Z" transform="translate(-500.057 -225.849)" fill="#8a96a1"/>
  <path id="Path_1135" data-name="Path 1135" d="M593.373,231.507a.593.593,0,1,1-.583.589A.6.6,0,0,1,593.373,231.507Z" transform="translate(-581.896 -225.854)" fill="#8a96a1"/>
  <path id="Path_1136" data-name="Path 1136" d="M506.962,319.117a.593.593,0,1,1-.575-.6A.6.6,0,0,1,506.962,319.117Z" transform="translate(-500.058 -307.691)" fill="#8a96a1"/>
  <path id="Path_1137" data-name="Path 1137" d="M463.528,232.1a.588.588,0,1,1-.568-.6A.589.589,0,0,1,463.528,232.1Z" transform="translate(-459.217 -225.849)" fill="#8a96a1"/>
  <path id="Path_1138" data-name="Path 1138" d="M550.543,232.1a.588.588,0,1,1-.594-.6A.589.589,0,0,1,550.543,232.1Z" transform="translate(-541.056 -225.846)" fill="#8a96a1"/>
  <path id="Path_1139" data-name="Path 1139" d="M506.95,275.687a.594.594,0,1,1-.579-.589A.59.59,0,0,1,506.95,275.687Z" transform="translate(-500.045 -266.852)" fill="#8a96a1"/>
  <path id="Path_1140" data-name="Path 1140" d="M463.527,319.1a.588.588,0,1,1-.583-.584A.59.59,0,0,1,463.527,319.1Z" transform="translate(-459.216 -307.685)" fill="#8a96a1"/>
  <path id="Path_1141" data-name="Path 1141" d="M463.515,275.661a.589.589,0,1,1-.59-.58A.581.581,0,0,1,463.515,275.661Z" transform="translate(-459.203 -266.836)" fill="#8a96a1"/>
  <path id="Path_1142" data-name="Path 1142" d="M596.414,302.7c.171.02.29.025.406.049a.58.58,0,0,1,.463.575.548.548,0,0,1-.47.564,6.589,6.589,0,0,1-1.095,0,.5.5,0,0,1-.475-.523c-.018-.434-.021-.871,0-1.305a.57.57,0,0,1,.581-.556.579.579,0,0,1,.587.552C596.428,302.266,596.414,302.473,596.414,302.7Z" transform="translate(-584.19 -291.691)" fill="#8a96a1"/>
</svg>
