<svg xmlns="http://www.w3.org/2000/svg" width="44.87" height="44.87" viewBox="0 0 44.87 44.87">
  <g id="Group_2568" data-name="Group 2568" transform="translate(0 0)">
    <path id="Path_1131" data-name="Path 1131" d="M-609.141,236.665a22.428,22.428,0,0,1-22.474-22.516,22.49,22.49,0,0,1,22.537-22.354,22.449,22.449,0,0,1,22.333,22.541A22.389,22.389,0,0,1-609.141,236.665Zm14.116-28.462c-2.386-6.017-9.825-9.651-16.588-8.223A15.034,15.034,0,0,0-623.5,215.431a15.046,15.046,0,0,0,13.678,14.291c6.028.668,13.3-3.506,14.743-8.546l-6.3-3.769c-2.719,4.077-5.537,5.447-9.049,4.483a7.426,7.426,0,0,1-5.469-6.737,7.11,7.11,0,0,1,4.766-7.32,9.951,9.951,0,0,1,4.524-.264c2.479.419,4.067,2.2,5.16,4.488Z" transform="translate(631.615 -191.795)" fill="#172331"/>
  </g>
</svg>
