<svg xmlns="http://www.w3.org/2000/svg" width="15.736" height="11.803" viewBox="0 0 15.736 11.803">
  <path id="Path_2284" data-name="Path 2284" d="M-344.689,514.308h-6.206a1.491,1.491,0,0,1-1.645-1.631q0-4.271,0-8.541a1.486,1.486,0,0,1,1.616-1.629h12.5a1.483,1.483,0,0,1,1.614,1.6q0,4.3,0,8.6a1.484,1.484,0,0,1-1.615,1.6Q-341.555,514.309-344.689,514.308Zm-6.839-9.714a.966.966,0,0,0-.027.134q0,4.023,0,8.047c0,.378.2.548.616.548h12.53c.443,0,.617-.171.617-.609q0-3.931,0-7.863c0-.074-.015-.148-.026-.255-.149.127-.266.226-.382.326l-6.033,5.23c-.35.3-.53.3-.881,0l-2.831-2.454Zm13.442-1.072h-13.174l6.587,5.709Z" transform="translate(352.541 -502.505)" fill="#7a7a7a"/>
</svg>
