<svg xmlns="http://www.w3.org/2000/svg" width="50" height="50" viewBox="0 0 50 50">
  <g id="Group_99" data-name="Group 99" transform="translate(-163 -390)">
    <g id="Ellipse_2" data-name="Ellipse 2" transform="translate(163 390)" fill="rgba(255,103,0,0.1)" stroke="#ff6700" stroke-width="3">
      <circle cx="25" cy="25" r="25" stroke="none"/>
      <circle cx="25" cy="25" r="23.5" fill="none"/>
    </g>
    <g id="Group_98" data-name="Group 98" transform="translate(880.57 267.123)">
      <g id="Group_85" data-name="Group 85" transform="translate(-705.57 140.438)">
        <path id="Path_46" data-name="Path 46" d="M-691.261,184.594h-13.073a1.238,1.238,0,0,1-1.236-1.236V166.4a1.238,1.238,0,0,1,1.236-1.236h2.2v1.007h-2.2a.232.232,0,0,0-.229.229v16.961a.232.232,0,0,0,.229.229h13.073a.232.232,0,0,0,.229-.229V166.4a.232.232,0,0,0-.229-.229H-693.4V165.16h2.139a1.238,1.238,0,0,1,1.236,1.236v16.961A1.238,1.238,0,0,1-691.261,184.594Z" transform="translate(705.57 -165.16)" fill="#ff6700"/>
      </g>
      <g id="Group_86" data-name="Group 86" transform="translate(-701.375 136.877)">
        <path id="Path_47" data-name="Path 47" d="M-671.318,142.812a.823.823,0,0,1-.525-.183,1.41,1.41,0,0,1-.406-1.087v-.015a5.967,5.967,0,0,1,.519-2.45c.665-1.465,2.289-2.63,3.854-2.046a4.793,4.793,0,0,1,2.847,4.7,1.165,1.165,0,0,1-.457.905.964.964,0,0,1-.7.159h-4.976A.962.962,0,0,1-671.318,142.812Zm2.589-4.929a2.646,2.646,0,0,0-2.084,1.61,5.023,5.023,0,0,0-.429,2.033c0,.014,0,.028,0,.041a.977.977,0,0,0,.026.224h5.155a.607.607,0,0,0,.028-.147,3.782,3.782,0,0,0-2.2-3.669A1.422,1.422,0,0,0-668.73,137.884Z" transform="translate(672.25 -136.877)" fill="#ff6700"/>
      </g>
      <g id="Group_87" data-name="Group 87" transform="translate(-703.063 147.534)">
        <rect id="Rectangle_10" data-name="Rectangle 10" width="5.983" height="1.332" rx="0.666" transform="translate(0 0)" fill="#ff6700"/>
      </g>
      <g id="Group_88" data-name="Group 88" transform="translate(-703.063 153.169)">
        <rect id="Rectangle_11" data-name="Rectangle 11" width="5.983" height="1.332" rx="0.666" transform="translate(0 0)" fill="#ff6700"/>
      </g>
      <g id="Group_90" data-name="Group 90" transform="translate(-697.004 149.785)">
        <g id="Group_89" data-name="Group 89" transform="translate(0 0)">
          <path id="Path_48" data-name="Path 48" d="M-637.5,240.37c.288.844.59,1.685.919,2.515a7.586,7.586,0,0,0,.639,1.411.876.876,0,0,0,1.1.414,1.868,1.868,0,0,0,.747-.739,9.616,9.616,0,0,0,.538-.9,3.291,3.291,0,0,0,.355-.767.769.769,0,0,0-.528-.929.767.767,0,0,0-.929.527c0,.007-.012.054-.018.055a.131.131,0,0,0-.007.018c.08-.261.085-.194.058-.138l-.031.067c-.047.1-.1.2-.15.3-.137.262-.282.521-.439.772-.073.117-.148.232-.229.343-.039.054-.126.136.046-.058-.016.018-.03.038-.046.056-.031.037-.066.07-.1.105-.078.085.118-.087.1-.073-.066.045-.093,0,.131-.05a.768.768,0,0,1,.666.18c-.031-.026-.085-.1.016.03s.03.037.006,0a3.907,3.907,0,0,1-.247-.489q-.034-.076-.067-.153a.666.666,0,0,0-.037-.087,1.017,1.017,0,0,0,.049.116l-.022-.052q-.08-.192-.156-.385c-.2-.518-.4-1.04-.584-1.564-.11-.307-.218-.614-.323-.922a.769.769,0,0,0-.929-.528.765.765,0,0,0-.528.929Z" transform="translate(637.531 -239.409)" fill="#ff6700"/>
        </g>
      </g>
      <g id="Group_92" data-name="Group 92" transform="translate(-697.004 143.737)">
        <g id="Group_91" data-name="Group 91" transform="translate(0 0)">
          <path id="Path_49" data-name="Path 49" d="M-637.5,192.329c.288.845.59,1.685.919,2.515a7.587,7.587,0,0,0,.639,1.411.876.876,0,0,0,1.1.414,1.869,1.869,0,0,0,.747-.739,9.632,9.632,0,0,0,.538-.9,3.294,3.294,0,0,0,.355-.767.769.769,0,0,0-.528-.929.766.766,0,0,0-.929.528c0,.006-.012.054-.018.055a.123.123,0,0,0-.007.018c.08-.261.085-.194.058-.138l-.031.067c-.047.1-.1.2-.15.3-.137.262-.282.521-.439.772-.073.117-.148.232-.229.343-.039.054-.126.136.046-.058-.016.018-.03.038-.046.056-.031.037-.066.07-.1.105-.078.085.118-.087.1-.073-.066.045-.093,0,.131-.05a.768.768,0,0,1,.666.18c-.031-.026-.085-.1.016.03s.03.037.006,0a3.923,3.923,0,0,1-.247-.489l-.067-.153a.666.666,0,0,0-.037-.087,1.017,1.017,0,0,0,.049.116l-.022-.052q-.08-.192-.156-.385c-.2-.518-.4-1.04-.584-1.564-.11-.307-.218-.614-.323-.922a.769.769,0,0,0-.929-.528.766.766,0,0,0-.528.929Z" transform="translate(637.531 -191.368)" fill="#ff6700"/>
        </g>
      </g>
      <g id="Group_93" data-name="Group 93" transform="translate(-688.823 143.576)">
        <path id="Path_50" data-name="Path 50" d="M-566.441,204.5h-2.088l-.052-.011a.938.938,0,0,1-.817-.851v-.244h-3.146v-1.007h4.153v1.107h1.835v-.956l.538-.688v-4.881a5.265,5.265,0,0,1-1.475-1.462l-.032-.049-.02-.055c-.01-.028-.991-2.762-1.345-3.737-.15-.413-.335-.547-.427-.566l-.058.019v-.019h-3.171v-1.007h3.144c.385-.034,1.079.188,1.458,1.229.326.9,1.179,3.272,1.325,3.681a3.89,3.89,0,0,0,1.316,1.21l.291.136v5.849l-.538.688v.747l-.011.052A.95.95,0,0,1-566.441,204.5Zm-2.857-13.408Z" transform="translate(572.544 -190.083)" fill="#ff6700"/>
      </g>
      <g id="Group_94" data-name="Group 94" transform="translate(-688.823 145.254)">
        <path id="Path_51" data-name="Path 51" d="M-568.964,208.4h-3.58v-1.007h3.294a.94.94,0,0,0,.006-.1l-1.157-2.87h-2.143v-1.007h2.823l1.471,3.648.007.073a1.087,1.087,0,0,1-.658,1.249Z" transform="translate(572.544 -203.416)" fill="#ff6700"/>
      </g>
      <g id="Group_95" data-name="Group 95" transform="translate(-687.768 151.493)">
        <path id="Path_52" data-name="Path 52" d="M-563.287,255.833l-.143-.094a1.609,1.609,0,0,1-.732-1.2,1.4,1.4,0,0,1,.724-1.167l.1-.068,2.492-.332.122.048a1.449,1.449,0,0,1,.794.754,2.277,2.277,0,0,1,.021,1.14l-.017.077-.04.068a1.136,1.136,0,0,1-.884.609c-.161,0-1.476.091-2.267.148Zm.328-1.558c-.143.114-.2.206-.2.259a.481.481,0,0,0,.164.268c.528-.038,1.711-.121,2.067-.135a.624.624,0,0,0,.048-.054,1.262,1.262,0,0,0,.005-.473.361.361,0,0,0-.13-.126Z" transform="translate(564.161 -252.977)" fill="#ff6700"/>
      </g>
      <g id="Group_96" data-name="Group 96" transform="translate(-682.603 147.313)">
        <rect id="Rectangle_12" data-name="Rectangle 12" width="2.496" height="1.006" rx="0.503" transform="translate(0 0)" fill="#ff6700"/>
      </g>
      <g id="Group_97" data-name="Group 97" transform="translate(-698.942 139.087)">
        <circle id="Ellipse_5" data-name="Ellipse 5" cx="1.032" cy="1.032" r="1.032" transform="translate(0 0)" fill="#ff6700"/>
      </g>
    </g>
  </g>
</svg>
