<svg xmlns="http://www.w3.org/2000/svg" width="11.12" height="12.974" viewBox="0 0 11.12 12.974">
  <path id="Path_2229" data-name="Path 2229" d="M13.767,7.81A1.853,1.853,0,0,1,15.62,9.664V13.37a1.853,1.853,0,0,1-1.853,1.853H6.353A1.853,1.853,0,0,1,4.5,13.37V9.664A1.853,1.853,0,0,1,6.353,7.81V5.957a3.707,3.707,0,0,1,7.414,0ZM10.06,3.486a2.471,2.471,0,0,1,2.471,2.471V7.81H7.589V5.957A2.471,2.471,0,0,1,10.06,3.486Zm3.707,5.56H6.353a.618.618,0,0,0-.618.618V13.37a.618.618,0,0,0,.618.618h7.414a.618.618,0,0,0,.618-.618V9.664A.618.618,0,0,0,13.767,9.046Z" transform="translate(-4.5 -2.25)" fill="#7a7a7a" fill-rule="evenodd"/>
</svg>
