<svg xmlns="http://www.w3.org/2000/svg" width="12.958" height="12.974" viewBox="0 0 12.958 12.974">
  <g id="Group_3986" data-name="Group 3986" transform="translate(-711.281 -45.247)">
    <g id="Group_3985" data-name="Group 3985" transform="translate(711.281 45.247)">
      <path id="Path_2230" data-name="Path 2230" d="M723.558,58.221H711.97V51.784h-.689V47.993h3.662c-.049-.067-.078-.107-.108-.147a1.6,1.6,0,0,1,1.287-2.6,1.6,1.6,0,0,1,.953.385c.241.185.461.4.692.6.173-.16.352-.335.543-.5a2.979,2.979,0,0,1,.37-.255,1.515,1.515,0,0,1,1.972.317,1.591,1.591,0,0,1,.051,2.026c-.033.042-.068.083-.132.16h3.667v3.792h-.681Zm-10.444-1.132h9.294v-5.3h-9.294Zm-.708-6.449h10.7V49.125h-10.7ZM717.1,47.3a2.5,2.5,0,0,0-.822-.848.385.385,0,0,0-.483.027.431.431,0,0,0-.173.458.408.408,0,0,0,.357.356C716.334,47.316,716.692,47.3,717.1,47.3Zm1.316,0c.41,0,.764.018,1.115-.006a.446.446,0,0,0,.366-.561.432.432,0,0,0-.548-.329A2.286,2.286,0,0,0,718.416,47.3Z" transform="translate(-711.281 -45.247)" fill="#7a7a7a"/>
    </g>
  </g>
</svg>
