<svg xmlns="http://www.w3.org/2000/svg" width="14.267" height="14.266" viewBox="0 0 14.267 14.266">
  <g id="Group_2671" data-name="Group 2671" transform="translate(419.07 -131.614)">
    <g id="Group_2670" data-name="Group 2670" transform="translate(-419.07 131.614)">
      <path id="Path_1165" data-name="Path 1165" d="M-409.1,142.844a6.268,6.268,0,0,1-8.743-1.278,6.242,6.242,0,0,1,.679-8.213,6.243,6.243,0,0,1,8.232-.365,6.256,6.256,0,0,1,1.089,8.585c.065.068.132.141.2.212l2.537,2.537a.84.84,0,0,1,.017,1.269.839.839,0,0,1-1.268,0Zm-3.725-9.451a4.452,4.452,0,0,0-4.468,4.446,4.454,4.454,0,0,0,4.432,4.454,4.454,4.454,0,0,0,4.468-4.419A4.451,4.451,0,0,0-412.822,133.394Z" transform="translate(419.07 -131.614)" fill="#fff"/>
    </g>
  </g>
</svg>
