<svg xmlns="http://www.w3.org/2000/svg" width="21.033" height="14.357" viewBox="0 0 21.033 14.357">
  <g id="Group_2678" data-name="Group 2678" transform="translate(406.465 -188.432)">
    <g id="Group_2677" data-name="Group 2677" transform="translate(-406.465 188.432)">
      <path id="Path_1166" data-name="Path 1166" d="M-406.015,201.685c-.649-1.054-.7-4.544.555-7.164a10.651,10.651,0,0,1,10.478-6.061,10.41,10.41,0,0,1,8.843,6.235l-2.379,1c-2.9-3.63-6.575-5.106-11.018-3.582C-403.952,193.631-405.921,197.058-406.015,201.685Z" transform="translate(406.465 -188.432)" fill="#7a7a7a"/>
      <path id="Path_1167" data-name="Path 1167" d="M-380.541,236.293l-.836.374-.725-.856-.866,1.1-.738-.655,1.135-1.039-2.688-1.62-.546,1.53-.393-.13.487-1.494-2.088-.371v1.458h-.853v-1.38a7.342,7.342,0,0,0-2.733.6l.593,1.374-.37.2-.661-1.433-1.982,1.33,1.037,1.111-.6.591-1-1.158-1.431,2.174,1.41.617-.163.392-1.422-.6-.591,2.663h1.516l.028.5h-2.37a9.067,9.067,0,0,1,5.874-8.735A9.18,9.18,0,0,1-380.541,236.293Z" transform="translate(398.207 -228.379)" fill="#7a7a7a"/>
      <path id="Path_1168" data-name="Path 1168" d="M-304.687,270.262a5.671,5.671,0,0,1-.623.5c-2.14,1.29-4.275,2.591-6.436,3.847-1.533.891-3.1,1.722-4.657,2.571a1.007,1.007,0,0,1-1.215-.117,1.024,1.024,0,0,1-.286-1.187,1.192,1.192,0,0,1,.517-.551q5.807-2.49,11.632-4.938a8.112,8.112,0,0,1,.99-.281Z" transform="translate(325.72 -262.975)" fill="#7a7a7a"/>
      <path id="Path_1169" data-name="Path 1169" d="M-218.813,300.016v-.579h1.489l-.508-2.412-1.473.572-.055-.119,2.179-1.218a8.917,8.917,0,0,1,.77,3.757Z" transform="translate(235.702 -286.841)" fill="#7a7a7a"/>
    </g>
  </g>
</svg>
