<svg xmlns="http://www.w3.org/2000/svg" width="50" height="50" viewBox="0 0 50 50">
  <g id="Group_4222" data-name="Group 4222" transform="translate(-271 -353)">
    <g id="Group_4085" data-name="Group 4085" transform="translate(307 30)">
      <g id="Ellipse_48" data-name="Ellipse 48" transform="translate(-36 323)" fill="rgba(28,104,209,0.1)" stroke="rgba(8,93,196,0.4)" stroke-width="3">
        <circle cx="25" cy="25" r="25" stroke="none"/>
        <circle cx="25" cy="25" r="23.5" fill="none"/>
      </g>
      <g id="Ellipse_49" data-name="Ellipse 49" transform="translate(-36 323)" fill="rgba(28,104,209,0.1)" stroke="#085dc4" stroke-linecap="round" stroke-width="3" stroke-dasharray="70">
        <circle cx="25" cy="25" r="25" stroke="none"/>
        <circle cx="25" cy="25" r="23.5" fill="none"/>
      </g>
    </g>
    <g id="Group_155" data-name="Group 155" transform="translate(1479.822 59.109)">
      <path id="Path_66" data-name="Path 66" d="M-1180.475,307.891a12.808,12.808,0,0,1,2.928.45,10.535,10.535,0,0,1,3.558,1.772,10.823,10.823,0,0,1,3.738,5.063,7.678,7.678,0,0,1,.438,1.674c.013.117.022.182-.121.187a8.936,8.936,0,0,0-3.316.9c-.493.216-1,.4-1.478.647a3.1,3.1,0,0,1-2.739-.03c-.672-.281-1.325-.608-2.022-.831a4.357,4.357,0,0,0-1.93-.12,13.081,13.081,0,0,0-3.224,1.068,3.52,3.52,0,0,1-2.317.049,18.5,18.5,0,0,1-2.936-1.2,7.151,7.151,0,0,0-1.379-.461c-.162-.037-.2-.087-.171-.239a10.729,10.729,0,0,1,.716-2.329,10.841,10.841,0,0,1,2.938-3.952,10.755,10.755,0,0,1,3.693-2.071,12.172,12.172,0,0,1,2.566-.52C-1181.23,307.911-1180.928,307.9-1180.475,307.891Z" transform="translate(-3.191)" fill="#1c68d1"/>
      <path id="Path_67" data-name="Path 67" d="M-1183.886,519.215a5.438,5.438,0,0,1-1.7-.114,11.06,11.06,0,0,1-1.982-.51,10.492,10.492,0,0,1-2.29-1.137,11.044,11.044,0,0,1-3.917-4.447,10.252,10.252,0,0,1-.638-1.734c-.1-.372-.193-.748-.27-1.122a8.41,8.41,0,0,1-.129-2.093c.008-.175.115-.179.257-.149a6.1,6.1,0,0,1,1.328.514,21.251,21.251,0,0,0,2.029.876,6.733,6.733,0,0,0,2.672.415,5.5,5.5,0,0,0,1.651-.5,15.031,15.031,0,0,1,2.226-.769,3.233,3.233,0,0,1,2.028.217,16.516,16.516,0,0,0,2.383.929,4.361,4.361,0,0,0,2.925-.314,26.152,26.152,0,0,1,2.607-1.09,9.485,9.485,0,0,1,1.7-.347c.117-.015.187.023.178.154a10.46,10.46,0,0,1-.072,1.557c-.065.3-.094.625-.141.937a5.949,5.949,0,0,1-.222.916,11.261,11.261,0,0,1-.864,2.067,11.9,11.9,0,0,1-.957,1.469,11.519,11.519,0,0,1-1.61,1.686,9.829,9.829,0,0,1-2.2,1.45,10.175,10.175,0,0,1-1.7.67c-.405.111-.812.208-1.227.287A8.353,8.353,0,0,1-1183.886,519.215Zm.094-6.418a1.923,1.923,0,0,0-1.992,1.822,1.959,1.959,0,0,0,1.962,2.089,2,2,0,0,0,1.974-1.905A1.932,1.932,0,0,0-1183.793,512.8Z" transform="translate(0 -189.497)" fill="#1c68d1" opacity="0.5"/>
    </g>
  </g>
</svg>
