<svg xmlns="http://www.w3.org/2000/svg" width="43.023" height="45.202" viewBox="0 0 43.023 45.202">
  <g id="Group_2615" data-name="Group 2615" transform="translate(-425.268 -640.414)">
    <g id="Group_2614" data-name="Group 2614" transform="translate(425.268 640.414)">
      <path id="Path_1143" data-name="Path 1143" d="M488.7,901.675v24.681H472.238c.156-.592.305-1.177.465-1.759q2.743-9.98,5.489-19.96.374-1.358.745-2.717c.047-.174.1-.3.33-.3q4.64.013,9.28.01A.739.739,0,0,1,488.7,901.675Z" transform="translate(-468.558 -881.161)" fill="#172331"/>
      <path id="Path_1144" data-name="Path 1144" d="M713.587,926.281V901.559c.149-.008.288-.021.426-.021q4.425,0,8.849,0c.238,0,.4.012.483.306q1.768,6.494,3.56,12.982,1.473,5.357,2.949,10.714c.065.236.114.477.178.745Z" transform="translate(-691.001 -881.079)" fill="#172331"/>
      <path id="Path_1145" data-name="Path 1145" d="M433.852,851.275h-4.3v-2.121h-4.288v-2.141h43.023v2.111h-4.283v2.136h-4.33c0-.56-.024-1.106.008-1.649.023-.385-.116-.479-.484-.477-3.472.012-6.944.007-10.417.007H434.766c-.915,0-.915,0-.914.932C433.853,850.462,433.852,850.85,433.852,851.275Z" transform="translate(-425.268 -830.828)" fill="#172331"/>
      <path id="Path_1146" data-name="Path 1146" d="M585.16,654.4l1.84-6.7c.632-2.3,1.268-4.6,1.891-6.906.072-.267.177-.379.475-.374,1.211.018,2.423.008,3.667.008V654.4Z" transform="translate(-572.634 -640.414)" fill="#172331"/>
      <path id="Path_1147" data-name="Path 1147" d="M713.729,640.46c1.287,0,2.539.006,3.791,0,.263,0,.287.17.334.344q.523,1.905,1.044,3.811,1.256,4.565,2.514,9.129c.058.212.109.427.174.685h-7.857Z" transform="translate(-691.132 -640.452)" fill="#172331"/>
    </g>
  </g>
</svg>
