<svg id="user_2_" data-name="user (2)" xmlns="http://www.w3.org/2000/svg" width="13.445" height="16.115" viewBox="0 0 13.445 16.115">
  <path id="Path_19" data-name="Path 19" d="M90.913,7.763a3.756,3.756,0,0,0,2.744-1.137,3.755,3.755,0,0,0,1.137-2.744,3.756,3.756,0,0,0-1.137-2.744,3.88,3.88,0,0,0-5.489,0,3.756,3.756,0,0,0-1.137,2.744,3.755,3.755,0,0,0,1.137,2.744A3.756,3.756,0,0,0,90.913,7.763Zm0,0" transform="translate(-84.292 0)" fill="#8a96a1"/>
  <path id="Path_20" data-name="Path 20" d="M13.412,251.924a9.585,9.585,0,0,0-.131-1.018,8.02,8.02,0,0,0-.25-1.024,5.057,5.057,0,0,0-.421-.955,3.6,3.6,0,0,0-.635-.827,2.8,2.8,0,0,0-.912-.573,3.15,3.15,0,0,0-1.164-.211,1.181,1.181,0,0,0-.631.268c-.189.123-.41.266-.657.424a3.765,3.765,0,0,1-.85.375,3.3,3.3,0,0,1-2.08,0,3.758,3.758,0,0,1-.85-.375c-.245-.156-.466-.3-.658-.424a1.18,1.18,0,0,0-.631-.268,3.146,3.146,0,0,0-1.164.211,2.8,2.8,0,0,0-.912.573,3.6,3.6,0,0,0-.634.827,5.068,5.068,0,0,0-.421.955,8.04,8.04,0,0,0-.25,1.024,9.551,9.551,0,0,0-.131,1.019c-.021.308-.032.628-.032.952A2.676,2.676,0,0,0,.795,254.9a2.861,2.861,0,0,0,2.048.747H10.6a2.86,2.86,0,0,0,2.048-.747,2.675,2.675,0,0,0,.795-2.025c0-.325-.011-.645-.033-.952Zm0,0" transform="translate(0 -239.532)" fill="#8a96a1"/>
</svg>
